<svg xmlns="http://www.w3.org/2000/svg" viewBox="0 0 500 500"><g id="freepik--background-complete--inject-183"><path d="M381.06,157.62l-13.13.28-6.66.11c-2.22.05-4.46,0-6.69.06h-.45v-.45l-.05-11.19v-.5h.5l13.24.06c4.41,0,8.82.12,13.24.17h.27v.27c0,1.9-.08,3.79-.13,5.65Zm0,0-.14-5.65c-.05-1.87-.12-3.71-.13-5.54l.27.27c-4.42.05-8.83.16-13.24.17l-13.24.06.5-.5L355,157.62l-.44-.45c2.18,0,4.36,0,6.54.06l6.58.11Z" style="fill:#ebebeb"/><path d="M366.29,171.73l-13.13.28-6.66.11c-2.22,0-4.46,0-6.69.06h-.45v-.45l-.05-11.19V160h.51l13.24.06c4.41,0,8.82.12,13.24.17h.27v.27c0,1.9-.09,3.79-.13,5.65Zm0,0-.15-5.65c0-1.87-.11-3.71-.13-5.54l.28.27c-4.42.05-8.83.16-13.24.17l-13.24.06.5-.5-.06,11.19-.44-.45c2.18,0,4.35,0,6.54.06l6.58.11Z" style="fill:#ebebeb"/><path d="M395.83,171.73l-13.12.28-6.67.11c-2.22,0-4.46,0-6.69.06h-.44v-.45l0-11.19V160h.5l13.24.06c4.41,0,8.83.12,13.24.17h.28v.27c0,1.9-.08,3.79-.13,5.65Zm0,0-.14-5.65c-.05-1.87-.11-3.71-.13-5.54l.27.27c-4.41.05-8.83.16-13.24.17l-13.24.06.5-.5-.05,11.19-.45-.45c2.18,0,4.36,0,6.55.06l6.57.11Z" style="fill:#ebebeb"/><path d="M446.27,56.29l-13.12.28-6.66.11c-2.23,0-4.47,0-6.7.06h-.44v-.45l-.06-11.19v-.5h.5l13.24.06c4.42,0,8.83.12,13.24.17h.28v.27c0,1.9-.09,3.79-.13,5.65Zm0,0-.14-5.65c0-1.87-.11-3.71-.13-5.54l.27.27c-4.41.05-8.82.16-13.24.17l-13.24.06.5-.5-.05,11.19-.45-.45c2.18,0,4.36,0,6.55.06l6.58.11Z" style="fill:#ebebeb"/><path d="M461,70.4l-13.12.28-6.66.11c-2.23,0-4.46,0-6.7.06h-.44V70.4l-.06-11.19v-.5h.5l13.24.06c4.42,0,8.83.12,13.24.17h.28v.27c0,1.9-.09,3.79-.13,5.65Zm0,0-.14-5.65c0-1.87-.11-3.71-.13-5.54l.27.27c-4.41.05-8.82.16-13.24.17l-13.24.06.5-.5L435,70.4l-.45-.45c2.19,0,4.36,0,6.55.06l6.58.11Z" style="fill:#ebebeb"/><path d="M65.44,56.3l-13.13.28-6.66.11c-2.23.05-4.46,0-6.69.06h-.45V56.3l0-11.19v-.5H39l13.24.07c4.41,0,8.82.11,13.24.16h.27v.27c0,1.9-.09,3.79-.13,5.66Zm0,0-.15-5.65c0-1.86-.11-3.71-.13-5.54l.28.28c-4.42,0-8.83.15-13.24.16L39,45.61l.49-.5L39.4,56.3,39,55.86c2.18,0,4.35,0,6.54,0l6.58.11Z" style="fill:#ebebeb"/><path d="M53.73,332.63l13.35-.28,6.58-.11c2.19-.05,4.37,0,6.55-.05l-.45.44-.05-11.19.5.5L67,321.88c-4.42,0-8.83-.11-13.24-.17l.27-.27c0,1.83-.09,3.67-.13,5.54Zm0,0-.15-5.53c0-1.87-.11-3.76-.13-5.66v-.27h.28c4.41-.05,8.82-.16,13.24-.17l13.24-.06h.5v.5l-.06,11.19v.45h-.44c-2.23,0-4.47,0-6.7-.06l-6.66-.11Z" style="fill:#ebebeb"/><path d="M39,346.74l13.35-.28,6.58-.11c2.19-.05,4.36,0,6.55-.05l-.45.44,0-11.19.5.5L52.2,336c-4.42,0-8.83-.11-13.24-.17l.27-.27c0,1.83-.09,3.67-.13,5.54Zm0,0-.15-5.53c0-1.87-.11-3.76-.13-5.66v-.27H39c4.41,0,8.82-.16,13.24-.17l13.24-.06h.5v.5l-.06,11.19v.45h-.44c-2.24,0-4.47,0-6.7-.06L52.08,347Z" style="fill:#ebebeb"/><path d="M434.56,332.64l13.36-.28,6.58-.11c2.19,0,4.36,0,6.54-.05l-.44.44-.05-11.19.49.5-13.24-.06c-4.41,0-8.82-.11-13.24-.16l.28-.28c0,1.83-.09,3.68-.13,5.54Zm0,0-.14-5.53c0-1.87-.11-3.76-.13-5.66v-.27h.27c4.42-.05,8.83-.16,13.24-.16L461,321h.51v.5l-.05,11.19v.45H461c-2.23,0-4.46,0-6.69-.06l-6.66-.11Z" style="fill:#ebebeb"/><path d="M227.22,316.51l13.13-.28,6.66-.11c2.22-.05,4.46,0,6.69-.06h.44v.45l0,11.19v.5h-.5l-13.24-.07c-4.41,0-8.83-.11-13.24-.16H227v-.27c0-1.9.08-3.79.13-5.66Zm0,0,.14,5.65c0,1.86.11,3.71.13,5.54l-.27-.28c4.41-.05,8.83-.15,13.24-.16l13.24-.06-.5.5.06-11.19.44.44c-2.18,0-4.36,0-6.54-.05l-6.58-.11Z" style="fill:#ebebeb"/><path d="M242,302.4l13.13-.28,6.66-.11c2.22-.05,4.46,0,6.69-.06h.45v.45l.05,11.19v.5h-.5L255.23,314c-4.41,0-8.82-.11-13.24-.16h-.27v-.27c0-1.9.09-3.79.13-5.66Zm0,0,.14,5.65c.05,1.86.12,3.71.14,5.54l-.28-.28c4.42-.05,8.83-.15,13.24-.16l13.24-.06-.5.5L268,302.4l.44.44c-2.18,0-4.36,0-6.54,0l-6.58-.11Z" style="fill:#ebebeb"/><rect width="1" height="76.24" x="422.44" style="fill:#c7c7c7"/><polygon points="386.27 111.59 389.22 118.07 456.67 118.07 459.61 111.59 430.89 91.71 414.99 91.71 386.27 111.59" style="fill:#ebebeb"/><polygon points="412.99 72.56 414.99 91.71 430.89 91.71 432.89 72.56 412.99 72.56" style="fill:#dbdbdb"/><polygon points="386.27 111.59 389.22 118.08 456.67 118.08 459.61 111.59 386.27 111.59" style="fill:#dbdbdb"/><rect width="1" height="55.33" x="343.71" style="fill:#c7c7c7"/><polygon points="307.54 90.67 310.49 97.16 377.93 97.16 380.88 90.67 352.16 70.8 336.25 70.8 307.54 90.67" style="fill:#ebebeb"/><polygon points="334.26 51.65 336.25 70.8 352.16 70.8 354.15 51.65 334.26 51.65" style="fill:#dbdbdb"/><polygon points="307.54 90.68 310.49 97.16 377.94 97.16 380.88 90.68 307.54 90.68" style="fill:#dbdbdb"/><rect width="220.01" height="145.41" x="45.81" y="56.31" style="fill:#ebebeb"/><rect width="230.61" height="7.12" x="40.57" y="49.19" style="fill:#a6a6a6"/><rect width="34.74" height="41.16" x="56.41" y="76.23" style="fill:#fff"/><path d="M75,79a1.25,1.25,0,1,1-1.25-1.25A1.25,1.25,0,0,1,75,79Z" style="fill:#455a64"/><path d="M63,84.48c3.52-.27,7-.29,10.54-.33s7,0,10.54.33c-3.51.27-7,.29-10.54.32S66.54,84.75,63,84.48Z" style="fill:#ebebeb"/><path d="M63,87.73a47.86,47.86,0,0,1,5.73-.33,44,44,0,0,1,5.73.33,45.87,45.87,0,0,1-5.73.33A47.86,47.86,0,0,1,63,87.73Z" style="fill:#ebebeb"/><path d="M63,91c2.44-.25,4.88-.31,7.32-.32s4.88.07,7.32.32a71.71,71.71,0,0,1-7.32.33A71.71,71.71,0,0,1,63,91Z" style="fill:#ebebeb"/><path d="M63,94.24c3.06-.26,6.11-.32,9.16-.33s6.11.07,9.16.33c-3,.25-6.11.31-9.16.32S66.08,94.49,63,94.24Z" style="fill:#ebebeb"/><path d="M63,97.49c2.66-.26,5.31-.32,8-.33s5.3.07,8,.33c-2.66.25-5.31.31-8,.32S65.68,97.74,63,97.49Z" style="fill:#ebebeb"/><path d="M63,100.74c3.4-.27,6.79-.29,10.19-.33s6.79.06,10.18.33c-3.39.27-6.79.29-10.18.33S66.42,101,63,100.74Z" style="fill:#ebebeb"/><path d="M63,104a60.51,60.51,0,0,1,6.58-.32,60.39,60.39,0,0,1,6.58.32,58,58,0,0,1-6.58.33A58.11,58.11,0,0,1,63,104Z" style="fill:#ebebeb"/><path d="M63,107.25c3.52-.27,7-.29,10.54-.33s7,0,10.54.33c-3.51.27-7,.29-10.54.32S66.54,107.52,63,107.25Z" style="fill:#ebebeb"/><path d="M63,110.5c3.52-.27,7-.29,10.54-.33s7,.06,10.54.33c-3.51.27-7,.29-10.54.33S66.54,110.77,63,110.5Z" style="fill:#ebebeb"/><rect width="27.2" height="32.23" x="228.35" y="111.6" style="fill:#fff"/><circle cx="241.95" cy="114.41" r=".93" style="fill:#455a64"/><path d="M232.71,120.38a20.41,20.41,0,0,1,5.7,0,19.44,19.44,0,0,1-5.7,0Z" style="fill:#ebebeb"/><path d="M232.71,122.68a32.52,32.52,0,0,1,7.38,0,28.52,28.52,0,0,1-3.69.2A30.42,30.42,0,0,1,232.71,122.68Z" style="fill:#ebebeb"/><path d="M232.71,125a28,28,0,0,1,6.84,0,29.34,29.34,0,0,1-6.84,0Z" style="fill:#ebebeb"/><path d="M232.71,127.27a29.34,29.34,0,0,1,6.84,0,28,28,0,0,1-6.84,0Z" style="fill:#ebebeb"/><path d="M232.71,129.57a19.76,19.76,0,0,1,3-.2,18.53,18.53,0,0,1,3,.2,21.11,21.11,0,0,1-5.94,0Z" style="fill:#ebebeb"/><path d="M232.71,131.87a34.49,34.49,0,0,1,7.6,0,36.2,36.2,0,0,1-7.6,0Z" style="fill:#ebebeb"/><path d="M232.71,134.17a23.51,23.51,0,0,1,6.27,0,24.67,24.67,0,0,1-6.27,0Z" style="fill:#ebebeb"/><path d="M232.71,136.46a38.81,38.81,0,0,1,7.87,0,37,37,0,0,1-7.87,0Z" style="fill:#ebebeb"/><path d="M232.71,138.76a34.48,34.48,0,0,1,3.93-.2,32.5,32.5,0,0,1,3.94.2,37,37,0,0,1-7.87,0Z" style="fill:#ebebeb"/><path d="M243.94,120.38a35.07,35.07,0,0,1,7.48,0,33.41,33.41,0,0,1-7.48,0Z" style="fill:#ebebeb"/><path d="M243.94,122.68a14.51,14.51,0,0,1,4.92,0,12.76,12.76,0,0,1-2.46.2A13.61,13.61,0,0,1,243.94,122.68Z" style="fill:#ebebeb"/><path d="M243.94,125a29.52,29.52,0,0,1,7,0,31,31,0,0,1-7,0Z" style="fill:#ebebeb"/><path d="M243.94,127.27a29.34,29.34,0,0,1,6.84,0,28,28,0,0,1-6.84,0Z" style="fill:#ebebeb"/><path d="M243.94,129.57a31.24,31.24,0,0,1,3.74-.2,29.3,29.3,0,0,1,3.74.2,33.41,33.41,0,0,1-7.48,0Z" style="fill:#ebebeb"/><path d="M243.94,131.87a21.18,21.18,0,0,1,5.95,0,22.23,22.23,0,0,1-5.95,0Z" style="fill:#ebebeb"/><path d="M243.94,134.17a29.52,29.52,0,0,1,7,0,31,31,0,0,1-7,0Z" style="fill:#ebebeb"/><path d="M243.94,136.46a18.6,18.6,0,0,1,5.44,0,16.53,16.53,0,0,1-2.72.21A16.7,16.7,0,0,1,243.94,136.46Z" style="fill:#ebebeb"/><path d="M243.94,138.76a15.3,15.3,0,0,1,2.61-.2,14.35,14.35,0,0,1,2.61.2,16.32,16.32,0,0,1-5.22,0Z" style="fill:#ebebeb"/><rect width="20.9" height="20.9" x="84.85" y="101.6" style="fill:#c7c7c7"/><path d="M96.55,103.72a1.25,1.25,0,1,1-1.25-1.25A1.25,1.25,0,0,1,96.55,103.72Z" style="fill:#455a64"/><rect width="220.01" height="9.25" x="45.81" y="56.31" style="fill:#dbdbdb"/><polygon points="115.54 77.02 150.82 76.95 186.1 77.02 150.82 77.1 115.54 77.02" style="fill:#c7c7c7"/><polygon points="115.54 79.9 150.82 79.83 186.1 79.9 150.82 79.98 115.54 79.9" style="fill:#c7c7c7"/><polygon points="115.54 82.78 150.82 82.7 186.1 82.78 150.82 82.85 115.54 82.78" style="fill:#c7c7c7"/><polygon points="115.54 85.66 150.82 85.58 186.1 85.66 150.82 85.73 115.54 85.66" style="fill:#c7c7c7"/><polygon points="115.54 88.53 150.82 88.46 186.1 88.53 150.82 88.61 115.54 88.53" style="fill:#c7c7c7"/><polygon points="115.54 91.41 150.82 91.33 186.1 91.41 150.82 91.49 115.54 91.41" style="fill:#c7c7c7"/><polygon points="115.54 94.29 150.82 94.21 186.1 94.29 150.82 94.36 115.54 94.29" style="fill:#c7c7c7"/><polygon points="115.54 97.16 150.82 97.09 186.1 97.16 150.82 97.24 115.54 97.16" style="fill:#c7c7c7"/><polygon points="115.54 100.04 150.82 99.97 186.1 100.04 150.82 100.12 115.54 100.04" style="fill:#c7c7c7"/><polygon points="115.54 102.92 150.82 102.84 186.1 102.92 150.82 103 115.54 102.92" style="fill:#c7c7c7"/><polygon points="115.54 105.8 150.82 105.72 186.1 105.8 150.82 105.87 115.54 105.8" style="fill:#c7c7c7"/><polygon points="115.54 108.67 150.82 108.6 186.1 108.67 150.82 108.75 115.54 108.67" style="fill:#c7c7c7"/><polygon points="115.54 111.55 150.82 111.47 186.1 111.55 150.82 111.63 115.54 111.55" style="fill:#c7c7c7"/><polygon points="115.54 114.43 150.82 114.35 186.1 114.43 150.82 114.5 115.54 114.43" style="fill:#c7c7c7"/><polygon points="115.54 117.31 150.82 117.23 186.1 117.31 150.82 117.38 115.54 117.31" style="fill:#c7c7c7"/><rect width="5.35" height="23.5" x="123" y="97.16" style="fill:#c7c7c7"/><rect width="5.35" height="33.43" x="132.92" y="87.23" style="fill:#fff"/><rect width="5.35" height="37.95" x="142.85" y="82.71" style="fill:#c7c7c7"/><rect width="5.35" height="32.06" x="152.78" y="88.6" style="fill:#fff"/><rect width="5.35" height="30.31" x="162.7" y="90.35" style="fill:#c7c7c7"/><rect width="5.35" height="13.14" x="172.63" y="107.52" style="fill:#fff"/><path d="M117.45,75l.12,11.42.08,11.41c.06,7.61.07,15.22.08,22.83l-.28-.28h17.16l17.16,0,17.17.09,17.16.17-17.16.17-17.17.09-17.16,0H117.17v-.28q0-11.41.08-22.83l.08-11.41Z" style="fill:#c7c7c7"/><rect width="5.35" height=".48" x="123" y="123.07" style="fill:#c7c7c7"/><rect width="5.35" height=".48" x="132.92" y="123.07" style="fill:#c7c7c7"/><rect width="5.35" height=".48" x="142.85" y="123.07" style="fill:#c7c7c7"/><rect width="5.35" height=".48" x="152.78" y="123.07" style="fill:#c7c7c7"/><rect width="5.35" height=".48" x="162.7" y="123.07" style="fill:#c7c7c7"/><rect width="5.35" height=".48" x="172.63" y="123.07" style="fill:#c7c7c7"/><rect width="21.25" height="1.83" x="65.6" y="183.43" style="fill:#c7c7c7"/><rect width="28.7" height="1.83" x="65.6" y="187.25" style="fill:#c7c7c7"/><rect width="15.23" height="1.83" x="65.6" y="191.06" style="fill:#c7c7c7"/><rect width="4.43" height="4.43" x="56.43" y="183.43" style="fill:#c7c7c7"/><rect width="21.25" height="1.83" x="202.79" y="76.94" style="fill:#c7c7c7"/><rect width="28.7" height="1.83" x="202.79" y="80.75" style="fill:#c7c7c7"/><rect width="15.23" height="1.83" x="202.79" y="84.56" style="fill:#c7c7c7"/><rect width="4.43" height="4.43" x="193.62" y="76.94" style="fill:#c7c7c7"/><rect width="25.25" height="1.83" x="202.79" y="91.69" style="fill:#c7c7c7"/><rect width="19.98" height="1.83" x="202.79" y="95.5" style="fill:#c7c7c7"/><rect width="28.7" height="1.83" x="202.79" y="99.31" style="fill:#c7c7c7"/><rect width="4.43" height="4.43" x="193.62" y="91.69" style="fill:#fff"/><rect width="95.22" height="41.65" x="56.41" y="136.64" style="fill:#dbdbdb"/><rect width="85.1" height="3.6" x="61.47" y="141.89" style="fill:#fff"/><rect width="43.51" height="3.6" x="61.47" y="141.89" style="fill:#c7c7c7"/><rect width="85.1" height="3.6" x="61.47" y="148.78" style="fill:#fff"/><rect width="78.06" height="3.6" x="61.47" y="148.78" style="fill:#c7c7c7"/><rect width="85.1" height="3.6" x="61.47" y="155.66" style="fill:#fff"/><rect width="25.18" height="3.6" x="61.47" y="155.66" style="fill:#c7c7c7"/><rect width="85.1" height="3.6" x="61.47" y="162.55" style="fill:#fff"/><rect width="66.88" height="3.6" x="61.47" y="162.55" style="fill:#c7c7c7"/><rect width="85.1" height="3.6" x="61.47" y="169.43" style="fill:#fff"/><rect width="49.17" height="3.6" x="61.47" y="169.43" style="fill:#c7c7c7"/><path d="M213.34,159.33a24.34,24.34,0,0,1-3.71,11.21l-6.24-3.6a17.32,17.32,0,0,0,2.72-7.61Z" style="fill:#a6a6a6"/><path d="M213.41,157.46c0,.26,0,.52,0,.78h-7.2c0-.26,0-.52,0-.78A17.36,17.36,0,0,0,198.4,143l3.6-6.24A24.54,24.54,0,0,1,213.41,157.46Z" style="fill:#a6a6a6"/><path d="M201.07,136.15l-3.6,6.25a17.14,17.14,0,0,0-8.06-2.28v-7.2A24.27,24.27,0,0,1,201.07,136.15Z" style="fill:#a6a6a6"/><path d="M188.32,132.92v7.2a17.32,17.32,0,0,0-14.41,8.54l-6.24-3.59A24.49,24.49,0,0,1,188.32,132.92Z" style="fill:#c7c7c7"/><path d="M173.39,149.62a17.07,17.07,0,0,0-1.86,7.53h-7.21A24.27,24.27,0,0,1,167.15,146Z" style="fill:#a6a6a6"/><path d="M179.2,171.86l-3.61,6.25a24.49,24.49,0,0,1-11.26-19.87h7.21A17.27,17.27,0,0,0,179.2,171.86Z" style="fill:#a6a6a6"/><path d="M209,171.45a24.5,24.5,0,0,1-32.5,7.22l3.6-6.23a17.36,17.36,0,0,0,22.65-4.61Z" style="fill:#dbdbdb"/><path d="M201.69,158.24a11.37,11.37,0,0,1-6.93,10.47l-4.44-10.47Z" style="fill:#c7c7c7"/><path d="M188.86,157.46l4.45,10.47h0c-.35.14-.7.27-1,.38a11.36,11.36,0,1,1,7.49-14.24,11.76,11.76,0,0,1,.51,3.38Z" style="fill:#c7c7c7"/><path d="M188.86,157.46l4.45,10.47h0c-.35.14-.7.27-1,.38a11.38,11.38,0,1,1,0-21.71,11.56,11.56,0,0,1,7.49,7.47,11.76,11.76,0,0,1,.51,3.38Z" style="fill:#dbdbdb"/><path d="M188.87,157.46l-7.41,8.62a11.37,11.37,0,1,1,18.78-8.62Z" style="fill:#a6a6a6"/><polygon points="221.44 184.58 205.59 184.58 185.95 164.95 186.24 164.66 205.75 184.17 221.44 184.17 221.44 184.58" style="fill:#263238"/><rect width="2.21" height="2.21" x="184.99" y="163.7" style="fill:#263238"/><polygon points="221.44 169.39 203.57 169.39 195.09 160.91 195.38 160.62 203.74 168.99 221.44 168.99 221.44 169.39" style="fill:#263238"/><rect width="2.21" height="2.21" x="194.13" y="159.66" style="fill:#263238"/><rect width="27.01" height=".41" x="194.43" y="154.36" style="fill:#263238"/><rect width="2.21" height="2.21" x="193.03" y="153.46" style="fill:#263238"/><rect width="21.25" height="1.83" x="228.39" y="152.35" style="fill:#dbdbdb"/><rect width="28.7" height="1.83" x="228.39" y="156.16" style="fill:#dbdbdb"/><rect width="15.23" height="1.83" x="228.39" y="159.97" style="fill:#dbdbdb"/><rect width="4.43" height="4.43" x="219.22" y="152.35" style="fill:#c7c7c7"/><rect width="25.25" height="1.83" x="228.39" y="167.1" style="fill:#dbdbdb"/><rect width="19.98" height="1.83" x="228.39" y="170.91" style="fill:#dbdbdb"/><rect width="28.7" height="1.83" x="228.39" y="174.72" style="fill:#dbdbdb"/><rect width="4.43" height="4.43" x="219.22" y="167.1" style="fill:#a6a6a6"/><rect width="25.25" height="1.83" x="228.39" y="181.85" style="fill:#dbdbdb"/><rect width="19.98" height="1.83" x="228.39" y="185.66" style="fill:#dbdbdb"/><rect width="28.7" height="1.83" x="228.39" y="189.47" style="fill:#dbdbdb"/><rect width="4.43" height="4.43" x="219.22" y="181.85" style="fill:#c7c7c7"/></g><g id="freepik--Shadow--inject-183"><ellipse cx="250" cy="442.8" rx="107.1" ry="17.07" style="fill:#ebebeb"/></g><g id="freepik--Floor--inject-183"><polygon points="32.78 408.04 87.08 407.8 141.39 407.71 250 407.55 358.61 407.71 412.92 407.8 467.22 408.04 412.92 408.29 358.61 408.38 250 408.54 141.39 408.38 87.08 408.29 32.78 408.04" style="fill:#263238"/></g><g id="freepik--Desk--inject-183"><polygon points="231.97 300.36 229.44 315.52 212.3 408.04 209.54 408.04 222 315.52 223.84 300.36 231.97 300.36" style="fill:#dbdbdb"/><polygon points="223.84 300.36 231.97 300.36 229.44 315.52 222 315.52 223.84 300.36" style="fill:#c7c7c7"/><polygon points="285.77 408.04 283.01 408.04 265.87 315.52 263.35 300.36 271.47 300.36 273.31 315.52 285.77 408.04" style="fill:#dbdbdb"/><polygon points="271.47 300.36 273.31 315.52 265.87 315.52 263.35 300.36 271.47 300.36" style="fill:#c7c7c7"/><polygon points="337.16 408.04 334.4 408.04 317.26 315.52 314.73 300.36 322.86 300.36 324.7 315.52 337.16 408.04" style="fill:#dbdbdb"/><polygon points="324.7 315.52 317.26 315.52 314.73 300.36 322.86 300.36 324.7 315.52" style="fill:#c7c7c7"/><polygon points="332.78 307.48 207.24 307.48 207.24 297.3 254.23 294.25 270.03 203.15 327.99 203.15 332.78 307.48" style="fill:#dbdbdb"/><polygon points="332.78 307.48 325.93 307.48 321.47 203.15 327.99 203.15 332.78 307.48" style="fill:#c7c7c7"/><rect width="83.55" height="153.5" x="344.82" y="254.44" style="fill:#455a64"/><rect width="83.55" height="10.01" x="344.82" y="254.44" style="fill:#263238"/><rect width="338.4" height="8.08" x="125.84" y="246.37" style="fill:#455a64"/><polygon points="143.66 254.44 143.39 264.45 139.87 407.94 133.49 407.94 133.49 254.44 143.66 254.44" style="fill:#455a64"/><polygon points="133.49 254.44 143.66 254.44 143.39 264.45 133.49 264.45 133.49 254.44" style="fill:#263238"/><rect width="28.31" height="153.5" x="428.37" y="254.44" style="fill:#37474f"/><rect width="28.31" height="10.01" x="428.37" y="254.44" style="fill:#263238"/><rect width="63.49" height="12.53" x="366.59" y="233.84" style="fill:#ffc727"/><rect width="6.2" height="12.53" x="370.54" y="233.84" style="fill:#37474f"/><rect width="2.59" height="12.53" x="379.05" y="233.84" style="fill:#37474f"/><rect width="6.2" height="12.53" x="416.41" y="233.84" style="fill:#37474f"/><rect width="44.04" height="9.35" x="362.9" y="224.49" style="fill:#455a64"/><rect width="19" height="9.35" x="406.94" y="224.49" style="fill:#455a64"/><rect width="44.04" height="7.41" x="362.9" y="225.46" style="fill:#fff"/><path d="M365.75,227c3.44-.09,6.87-.16,10.3-.19l10.3-.06,10.3,0c3.43,0,6.86.1,10.29.2-3.43.09-6.86.16-10.29.19l-10.3.06-10.3-.06Q370.91,227.12,365.75,227Z" style="fill:#dbdbdb"/><path d="M365.75,228.44c3.44-.09,6.87-.16,10.3-.19l10.3-.06,10.3.06c3.43,0,6.86.1,10.29.19-3.43.09-6.86.16-10.29.19l-10.3.06-10.3-.06C372.62,228.6,369.19,228.53,365.75,228.44Z" style="fill:#dbdbdb"/><path d="M365.75,229.89q5.16-.13,10.3-.19l10.3-.06,10.3.06c3.43,0,6.86.1,10.29.19-3.43.1-6.86.16-10.29.2l-10.3,0-10.3-.06C372.62,230.05,369.19,230,365.75,229.89Z" style="fill:#dbdbdb"/><path d="M365.75,231.35q5.16-.15,10.3-.19l10.3-.06,10.3.05c3.43,0,6.86.1,10.29.2-3.43.09-6.86.16-10.29.19l-10.3.06-10.3-.06Q370.91,231.48,365.75,231.35Z" style="fill:#dbdbdb"/><rect width="44.07" height="10.24" x="372.78" y="214.25" style="fill:#37474f"/><rect width="4.11" height="10.24" x="408.07" y="214.25" style="fill:#ffc727"/><rect width="1.59" height="10.24" x="403.78" y="214.25" style="fill:#ffc727"/></g><g id="freepik--Plant--inject-183"><path d="M81.16,235.48s-24.22-3.39-18.56-32.63C62.6,202.85,89.66,208.93,81.16,235.48Z" style="fill:#ffc727"/><path d="M81.16,235.48s-24.22-3.39-18.56-32.63C62.6,202.85,89.66,208.93,81.16,235.48Z" style="opacity:.1"/><path d="M79.94,229.38c-.48-1.48-1-2.93-1.65-4.36,0-.19-.05-.37-.07-.55,0-.41-.07-.81-.1-1.21-.06-.87-.12-1.75-.17-2.62-.1-1.75-.22-3.49-.24-5.24,0-.1-.15-.09-.15,0,0,1.75,0,3.5,0,5.25,0,.87.08,1.75.14,2.62,0,.19,0,.39,0,.58a51.05,51.05,0,0,0-4.86-8.3,39.12,39.12,0,0,0-2.65-3.36c-1-1.11-2-2.16-3-3.25-.06-.07-.17,0-.1.1a44.22,44.22,0,0,1,4.67,6.21c.73,1.11,1.43,2.26,2.09,3.42l-.22-.09-.87-.35-2-.75c-1.29-.48-2.6-.95-3.89-1.45-.08,0-.13.11-.06.14,1.29.51,2.57,1.06,3.84,1.61l1.88.8c.31.14.63.27.94.39a2.59,2.59,0,0,0,.64.23c.49.88,1,1.76,1.42,2.65a63.77,63.77,0,0,1,3,7l.18.51a13.46,13.46,0,0,0-2-1c-.83-.39-1.67-.76-2.51-1.14-1.69-.78-3.38-1.58-5-2.5-.08,0-.15.09-.07.13,1.66.91,3.29,1.88,5,2.79.83.45,1.67.89,2.53,1.3a7.94,7.94,0,0,0,2.27.91,28.94,28.94,0,0,1,1.59,6.87c.27,3.31.24,6.64.32,10,0,.05.08.05.08,0,.25-3,.38-6,.39-9.05A26.11,26.11,0,0,0,79.94,229.38Z" style="fill:#263238"/><path d="M76.21,212.18a29.7,29.7,0,0,0-.25,5.16s.08,0,.08,0c.1-1.71.11-3.42.31-5.12C76.36,212.12,76.22,212.09,76.21,212.18Z" style="fill:#263238"/><path d="M69.28,213.65a19.51,19.51,0,0,1-3.11-1.53c-.08-.06-.16.07-.08.13a12,12,0,0,0,3.15,1.5C69.3,213.76,69.34,213.67,69.28,213.65Z" style="fill:#263238"/><path d="M81.93,281.9c0-2.67-.07-5.35-.1-8,0-8.89-.12-17.77-.28-26.66q-.19-10.59-.49-21.17A.13.13,0,0,0,81,226c0-1.93,0-3.85,0-5.78,0,0,0-.07-.11-.07s-.12,0-.12.07l0,5.79a.11.11,0,0,0-.06.09c-.35,12.55-.67,25.12-.75,37.68,0,2.55,0,5.11,0,7.66q-.14,12.28-.1,24.57c0,1.3,0,2.61,0,3.91,0,7.49.08,15,.09,22.48,0,.4.44.6.92.62s1.12-.19,1.12-.65c0-8.27.06-16.53.06-24.79C82,292.32,82,287.11,81.93,281.9Z" style="fill:#263238"/><path d="M71.82,273.77s-11.65-8.63-22.71-2.8-12.79,28.32-12.79,28.32,16.24,2.32,26.46-7.41C72.63,282.5,71.82,273.77,71.82,273.77Z" style="fill:#ffc727"/><path d="M75,274.3a14,14,0,0,0-6.75-.88,11.19,11.19,0,0,0-1.42-.14l-1.65-.12c-1.13-.09-2.26-.15-3.39-.24-2.3-.17-4.61-.31-6.9-.54-.08,0-.1.13,0,.14,2.27.29,4.53.62,6.81.85,1.17.12,2.34.24,3.52.32l.85.08c-.35.08-.69.16-1,.26a28.09,28.09,0,0,0-5.28,2.14c-.92.17-1.83.43-2.73.64-1.45.34-2.88.71-4.31,1.09-2.83.74-5.63,1.57-8.44,2.39-.09,0,0,.16,0,.14,2.81-.69,5.63-1.32,8.44-2,1.37-.32,2.73-.64,4.1-1l1.07-.25a34,34,0,0,0-8.28,7.2,45.11,45.11,0,0,0-5.76,9.08c0,.08.08.16.13.08a43.93,43.93,0,0,1,7-9.14l-.15.46L50.15,287c-.43,1.37-.87,2.74-1.28,4.12,0,.09.12.12.15,0,.49-1.33.95-2.67,1.42-4,.23-.65.46-1.31.7-2l.34-1,.12-.31a40.43,40.43,0,0,1,4.13-3.52,31.85,31.85,0,0,1,6.18-3.55c0,.2-.07.41-.11.6-.12.53-.24,1.06-.35,1.59-.23,1.11-.44,2.21-.65,3.32-.44,2.25-.72,4.53-1.14,6.79a.08.08,0,0,0,.15,0c.52-2.27,1.19-4.5,1.7-6.78.25-1.13.51-2.27.74-3.41l.33-1.6c.06-.29.12-.59.16-.89l.63-.26c3.06-1.13,6.44-1.95,9.7-1.33a9.55,9.55,0,0,1,7,5.62c.1.26.5.1.44-.16A9,9,0,0,0,75,274.3Z" style="fill:#263238"/><path d="M57.16,283.91l-1,4.42a33.38,33.38,0,0,0-.81,4.31c0,.06.08.06.1,0a33.64,33.64,0,0,0,1-4.34c.29-1.45.58-2.91.86-4.37A.07.07,0,1,0,57.16,283.91Z" style="fill:#263238"/><path d="M45.89,287.66c-1.48.75-2.92,1.61-4.47,2.22a.08.08,0,1,0,.06.14,49.33,49.33,0,0,0,4.45-2.31S45.93,287.64,45.89,287.66Z" style="fill:#263238"/><path d="M74.44,257.92s-14.24.91-20.87-8.48-5.13-22.8-5.13-22.8,15,1.82,20.89,8.56S74.44,257.92,74.44,257.92Z" style="fill:#ffc727"/><path d="M81.12,272c-.49-1.53-1.1-3-1.68-4.53s-1.14-2.85-1.77-4.26a88.14,88.14,0,0,0-4.27-8.39c-1-1.73-2.08-3.41-3.19-5.07,0-.25-.07-.5-.11-.75-.07-.45-.13-.89-.2-1.33-.14-.9-.3-1.8-.45-2.7-.33-2-.73-3.92-1-5.88,0-.1-.17-.1-.15,0,.29,1.94.48,3.9.75,5.84.14,1,.26,1.91.41,2.87,0,.34.1.69.16,1a103.41,103.41,0,0,0-7-9.14c-.34-.39-.69-.77-1-1.16a2.26,2.26,0,0,0-.13-.33l-.31-.81c-.21-.57-.41-1.13-.61-1.7-.4-1.11-.76-2.24-1.06-3.39,0-.09-.17,0-.15,0,.29,1.17.6,2.33.94,3.49.16.55.35,1.1.54,1.65l.1.28c-1.82-2-3.72-3.9-5.63-5.79-.07-.07-.17,0-.11.11a101.34,101.34,0,0,1,10.09,12.36,9.51,9.51,0,0,0-1-.27c-1.1-.21-2.2-.37-3.31-.51-2.32-.29-4.63-.59-6.94-.95a.07.07,0,1,0,0,.14c2.21.44,4.39.93,6.59,1.44,1,.24,2.07.44,3.11.64a19.34,19.34,0,0,1,2.5.72c.23.32.47.65.69,1,1.05,1.52,2.05,3.07,3,4.64L68.29,251c-1.1-.21-2.2-.41-3.31-.59-2.17-.36-4.34-.74-6.49-1.22-.09,0-.13.12,0,.14,2.18.51,4.34,1.11,6.5,1.68,1,.28,2.09.53,3.15.77l1.58.34a3.18,3.18,0,0,0,.64.11q3.12,5.06,5.84,10.35,1.19,2.32,2.3,4.69c.76,1.61,1.41,3.26,2.12,4.9C80.72,272.46,81.24,272.33,81.12,272Z" style="fill:#263238"/><path d="M66.55,239.24c-.28-1.35-.56-2.71-.86-4.06,0-.09-.16-.05-.14,0,.27,1.34.52,2.67.76,4s.44,2.69.81,4a0,0,0,0,0,0,0A29.78,29.78,0,0,0,66.55,239.24Z" style="fill:#263238"/><path d="M58.24,238.85a21.65,21.65,0,0,0-2.05-.86l-1.08-.43-.55-.22a2.27,2.27,0,0,1-.6-.26c-.11-.08-.17.11-.07.12a3.26,3.26,0,0,1,.61.25l.54.24,1,.47a20.81,20.81,0,0,0,2.1.83A.08.08,0,0,0,58.24,238.85Z" style="fill:#263238"/><path d="M89,246.72s8.62-16.09,21.73-18.59,21.13,11,21.13,11-9.56,12.21-21.59,14.34S89,246.72,89,246.72Z" style="fill:#ffc727"/><path d="M119.53,235.35a35.49,35.49,0,0,0-10.29.12l.59-.31,2.91-1.5c2-1,4.05-2.16,6.15-3a.07.07,0,1,0-.06-.13c-2,.95-4.17,1.75-6.23,2.7-1,.47-2,1-3,1.5-.65.34-1.37.66-2,1.07a36.24,36.24,0,0,0-8.33,2.77l1.64-1.78c1.22-1.34,2.42-2.75,3.76-4,.07-.07,0-.17-.11-.11-1.37,1.25-2.82,2.4-4.15,3.7q-1,.94-1.86,2c-.3.33-.6.68-.89,1a34.51,34.51,0,0,0-17.57,23.73c0,.09.11.14.14.05a39.57,39.57,0,0,1,9.63-16.31,37.84,37.84,0,0,1,17.57-10.16,38.32,38.32,0,0,1,12.12-1.1A.13.13,0,0,0,119.53,235.35Z" style="fill:#263238"/><path d="M131.88,239.13s-9.57,12.22-21.6,14.34c-9.18,1.63-16.73-3.16-19.79-5.51l-.67-1.09s6.21-5.23,18-8.25S131.88,239.13,131.88,239.13Z" style="opacity:.1"/><path d="M111.91,229.61a34.79,34.79,0,0,0-2.91,1.92,19.11,19.11,0,0,0-2.53,2.31.08.08,0,0,0,.11.11c.87-.75,1.75-1.51,2.65-2.23a28.4,28.4,0,0,1,2.76-2C112.07,229.68,112,229.56,111.91,229.61Z" style="fill:#263238"/><path d="M119.11,232.33c-.49.21-1,.38-1.47.58l-1.46.61c-.1,0-.05.21,0,.17l1.46-.6c.49-.19,1-.42,1.46-.62C119.24,232.44,119.19,232.3,119.11,232.33Z" style="fill:#263238"/><path d="M87.29,267s2.31,16,14.31,21.55,26.65,0,26.65,0S122.49,254,87.29,267Z" style="fill:#ffc727"/><path d="M120,278.15c-1.11-.13-2.21-.32-3.31-.52l-1.61-.3-.85-.17c-.32-.3-.64-.61-1-.9a48.49,48.49,0,0,0-7.34-5.32,40.64,40.64,0,0,0-4.4-2.27h.22c1.32.06,2.64.11,4,.18,2.64.12,5.28.18,7.91.35.09,0,.09-.14,0-.15-2.65-.18-5.28-.47-7.92-.7l-3.84-.34-2-.17-.5-.06c-.69-.25-1.38-.49-2.07-.71a18.77,18.77,0,0,0-10.18-.56c-3,.77-6,2.75-6.81,5.94a.1.1,0,0,0,.19.07c1.12-2.66,4.08-4,6.74-4.55a16.29,16.29,0,0,1,5.44-.11,13.83,13.83,0,0,0,.61,2.42c.33,1.12.66,2.24,1,3.37.68,2.24,1.43,4.46,2.09,6.71a.07.07,0,1,0,.14-.05c-.55-2.24-1-4.5-1.56-6.74-.27-1.11-.55-2.21-.82-3.31a18.63,18.63,0,0,0-.6-2.27,29.32,29.32,0,0,1,3.11.74,44.89,44.89,0,0,1,5.44,2c.18,1.14.43,2.27.69,3.39.33,1.41.7,2.81,1.15,4.18,0,.09.15.05.13,0a2,2,0,0,1,0-.26h0c-.27-1.31-.55-2.61-.83-3.91-.22-1-.42-2.11-.65-3.16a48.44,48.44,0,0,1,4.37,2.22c0,.32.11.65.16,1,.09.55.18,1.09.28,1.64.23,1.23.48,2.46.77,3.68a58.18,58.18,0,0,0,2.07,6.94s0,.06,0,.09l.07.08c.05.06.13,0,.12-.07-.56-2.37-1.19-4.72-1.71-7.09-.26-1.19-.52-2.37-.76-3.56-.12-.6-.23-1.19-.34-1.79l-.09-.53a50,50,0,0,1,4.68,3.11,51,51,0,0,1,7.16,6.54c.08.09.25,0,.17-.15a43.09,43.09,0,0,0-2.86-3.49c-.6-.64-1.23-1.27-1.87-1.88l.2,0c.56.1,1.13.18,1.69.26,1.11.15,2.23.26,3.34.38C120,278.3,120.07,278.16,120,278.15Z" style="fill:#263238"/><path d="M111.54,283.56h0c0-.14-.05-.28-.07-.41s-.12-.35-.15-.52h0c-.25-1.07-.46-2.14-.65-3.22,0-.08-.13,0-.13,0a13,13,0,0,0,.91,4.17s.1,0,.09,0Z" style="fill:#263238"/><path d="M101.49,283.31c0-.05,0-.07-.07-.07-.34-1.42-.67-2.83-1-4.25-.15-.75-.31-1.5-.45-2.25-.08-.4-.15-.81-.22-1.21a4,4,0,0,0-.26-1,.08.08,0,0,0-.14,0,7.14,7.14,0,0,0,.3,2.14c.15.78.3,1.56.47,2.33.35,1.58.75,3.15,1.19,4.7a.08.08,0,0,0,.16,0C101.5,283.54,101.49,283.42,101.49,283.31Z" style="fill:#263238"/><path d="M118.88,273.55c-2.19-.3-4.38-.62-6.58-.89-.09,0-.13.13,0,.15,2.19.32,4.39.59,6.58.88C118.94,273.7,119,273.56,118.88,273.55Z" style="fill:#263238"/><path d="M81.14,229.53s-7.35-32.23,27.29-45.28C108.43,184.25,118,226.68,81.14,229.53Z" style="fill:#ffc727"/><path d="M88.62,211.25,89,211l2-1.09,4-2.25c2.65-1.48,5.26-3,7.92-4.46.08-.05,0-.17-.08-.13-2.67,1.45-5.38,2.81-8.06,4.23l-4,2.1-1.62.85c1.15-2.19,2.39-4.34,3.74-6.4,1.81-2.76,3.8-5.39,5.86-8a.12.12,0,1,0-.17-.16,54.92,54.92,0,0,0-8,9.82c0-.12,0-.23,0-.34,0-.8.06-1.6.07-2.41,0-1.57-.05-3.15,0-4.72,0-.09-.14-.09-.15,0-.06,1.55-.25,3.09-.34,4.64,0,.77-.07,1.54-.1,2.32,0,.41,0,.89,0,1.35-.72,1.13-1.4,2.28-2,3.45a61.37,61.37,0,0,0-3.1,6.49c0-.8-.08-1.6-.13-2.41-.1-1.76-.32-3.52-.39-5.28a.07.07,0,0,0-.15,0c0,1.77,0,3.53,0,5.3,0,.88.06,1.76.11,2.64,0,.33,0,.66.07,1a57.2,57.2,0,0,0-2.62,8.86,93.52,93.52,0,0,0-1.29,9.73s0,0,0,0a52.55,52.55,0,0,1,1.83-8.68c.43-1.52.88-3,1.37-4.54,1.44-.68,2.82-1.52,4.21-2.29s2.9-1.59,4.35-2.38c2.89-1.59,5.77-3.2,8.76-4.6.08,0,0-.16-.08-.13-3,1.37-6.06,2.67-9,4.16-1.47.74-2.93,1.54-4.37,2.35-1.2.67-2.43,1.35-3.58,2.13.33-1,.68-2,1.07-3A85.84,85.84,0,0,1,88.62,211.25Z" style="fill:#263238"/><path d="M85.7,203.88c0-.09-.16-.09-.15,0,.12,1.84.19,3.68.38,5.51,0,.11.17.11.16,0C86,207.55,85.83,205.72,85.7,203.88Z" style="fill:#263238"/><path d="M102.3,210c-2.17.87-4.35,1.7-6.51,2.6-.06,0,0,.12,0,.1,2.19-.82,4.35-1.71,6.53-2.56C102.43,210.14,102.39,210,102.3,210Z" style="fill:#263238"/><path d="M105.59,195.17a56.73,56.73,0,0,0-6.15,3.3.09.09,0,1,0,.09.16c2-1.17,4.06-2.3,6.14-3.33C105.76,195.25,105.68,195.13,105.59,195.17Z" style="fill:#263238"/><rect width="49.95" height="52.65" x="55.12" y="299.24" style="fill:#37474f"/><rect width="2.56" height="90.18" x="51.69" y="317.87" style="fill:#263238"/><rect width="2.56" height="90.18" x="105.68" y="317.87" style="fill:#263238"/><rect width="2.56" height="90.18" x="80.05" y="317.87" style="fill:#263238"/><rect width="54" height="7.29" x="52.96" y="348.51" style="fill:#263238"/></g><g id="freepik--Character--inject-183"><path d="M316.09,437.31c-2.24.75-66.43.56-68.87-1-.93-.58-1.45-9.94-1.75-21.25-.07-2.44-.12-5-.16-7.53-.05-3-.09-6.11-.11-9.09-.08-13.41.11-25.21.11-25.21h41.78v34.3l-.22,7.53s24.54,11.07,27,13.06S318.33,436.58,316.09,437.31Z" style="fill:#d3766a"/><path d="M316.09,437.31c-2.24.75-66.43.56-68.87-1-.87-.54-1.38-8.69-1.68-18.94,5.14,2.38,49.53,11.49,60,11.61,10,.1-5.94-8-8.49-9.25,7.06,3.28,15.44,7.27,16.84,8.39C316.37,430.12,318.33,436.58,316.09,437.31Z" style="fill:#263238"/><path d="M222.74,181.59s21.91,110,23.45,118.11c.35,1.85-2,107.08-2,107.08H288.4s1.5-92.78-.46-109-26.77-116.19-26.77-116.19Z" style="fill:#ffc727"/><path d="M222.74,181.59s21.91,110,23.45,118.11c.35,1.85-2,107.08-2,107.08H288.4s1.5-92.78-.46-109-26.77-116.19-26.77-116.19Z" style="opacity:.2"/><path d="M222.74,181.59s10.66,53.53,17.64,88.67l20.8-88.67Z" style="opacity:.2"/><path d="M279.24,396.47l.31-43,.4-43c0-3.56.09-7.21-.05-10.69-.57-3.47-1.27-7-1.95-10.53l-4.16-21.09L269.66,247l-4.05-21.12q4.67,21,9,42.06l4.27,21.07c.69,3.54,1.42,7,2,10.62.13,3.67,0,7.2,0,10.8q-.24,21.51-.67,43C280,367.81,279.61,382.14,279.24,396.47Z" style="fill:#263238"/><path d="M252,448c-2.3.55-66.23-5.26-68.53-7-.87-.66-.56-10,.12-21.32.15-2.44,4.41-42.76,4.41-42.76l40.72,4.73-3.9,41.65s23.47,13.18,25.78,15.38S254.29,447.41,252,448Z" style="fill:#d3766a"/><path d="M252,448c-2.3.55-66.23-5.26-68.53-7-.77-.59-.61-8.05-.09-17.62,9,3.51,48,13.76,57.8,14.43,8.86.6-2.22-6.36-6.62-9,6.75,3.88,14.74,8.59,16,9.83C252.9,440.8,254.29,447.41,252,448Z" style="fill:#263238"/><path d="M227.22,413.21l-43.47-4.77s9.45-71.42,10.19-83.53c.37-6.18,6.81-73.26,10.39-103,0,0-8.72-18.34,5.92-40.39h51s-.81,22-6.65,36.68a88.77,88.77,0,0,0-13.28,5.91s-5,94.81-6.3,109.37C233.15,353.46,227.22,413.21,227.22,413.21Z" style="fill:#ffc727"/><g style="opacity:.2"><path d="M227.22,413.21l-43.47-4.77s9.45-71.42,10.19-83.53c.37-6.18,6.81-73.26,10.39-103,0,0-8.72-18.34,5.92-40.39h51s-.81,22-6.65,36.68a88.77,88.77,0,0,0-13.28,5.91s-5,94.81-6.3,109.37C233.15,353.46,227.22,413.21,227.22,413.21Z"/></g><path d="M220.84,405.49l2.08-22.27L225.09,361l4.41-44.5c.18-1.85.38-3.72.52-5.54l.33-5.58.66-11.16,1.34-22.32,1.4-22.32,1.51-22.31-1,22.34-1.13,22.33-1.19,22.32-.61,11.16L231,311c-.14,1.89-.33,3.72-.5,5.59q-2.26,22.24-4.65,44.48l-2.45,22.22Z" style="fill:#263238"/><path d="M213.92,119.22c0,10.47-1.87,23,3,32.76,3.79,7.61,11.31,12.54,19,15.58,16.93,6.69,40.27,6.71,51.26-10.28,4.38-6.78,4.62-20.56-3.3-25.27-4.07-2.42-8.81-2.82-13.33-3.85a19.1,19.1,0,0,1-13.33-9.89c-5.78-10.5-5-18.39-6.52-29.95a8.26,8.26,0,0,0-3.07-6,14.78,14.78,0,0,0-7-3.54,14.67,14.67,0,0,0-7.09-.88c-5.12.75-9.86,5.68-13.71,8.79s-5.62,6.35-5.73,11.41C213.9,105.15,214,112.19,213.92,119.22Z" style="fill:#263238"/><path d="M212.83,124.2c.66-9.6,1.51-19.17,2.3-28.75,0-.06.1-.06.1,0-.42,7.9-.74,15.8-1.26,23.71-.51,7.74-1.57,15.66-1.41,23.43.38,17.42,18.56,23.78,33.33,22.33.68-.06.71,1,0,1.06-13,.86-28.72-3-33.22-16.95C210.22,141.38,212.29,132,212.83,124.2Z" style="fill:#263238"/><path d="M249.8,87.44c0-.18.27-.18.28,0,.83,9.55.89,20.77,6.68,28.89a24.35,24.35,0,0,0,11.46,8.72c3.65,1.32,7.47,1.29,11.26,1.88,14.81,2.29,15.76,22.14,5.39,30.31-.22.17-.52-.2-.31-.38,7.28-6.3,9.31-17.28,2.86-25-5.18-6.22-14.54-3.8-21.39-7C251.84,118.22,250.06,101.36,249.8,87.44Z" style="fill:#263238"/><path d="M237,131.16c3.87,11.24,24.83,38.19,33.71,40.62,6.43,1.75,32.82-11.3,40.22-16.29,7.13-4.81-8.49-25.2-12.88-22.67-6.19,3.58-22.52,14.07-25.13,14-1.82-.07-11.6-7.48-26.41-20.67C238.35,118.81,234.73,124.45,237,131.16Z" style="fill:#d3766a"/><path d="M311.76,101.42l-11.84,28a1.06,1.06,0,0,0,.72,1.7l15.05,2.32a2.46,2.46,0,0,0,2.33-1.23l11.84-28a1.06,1.06,0,0,0-.72-1.7l-15.05-2.32A2.46,2.46,0,0,0,311.76,101.42Z" style="fill:#37474f"/><path d="M313.55,101.68l-11.84,28a1.06,1.06,0,0,0,.72,1.7l15.05,2.32a2.47,2.47,0,0,0,2.33-1.23l11.84-28a1.06,1.06,0,0,0-.72-1.7l-15.05-2.32A2.46,2.46,0,0,0,313.55,101.68Z" style="fill:#455a64"/><path d="M317.47,103.65a1.29,1.29,0,1,1-1.05-1.5A1.3,1.3,0,0,1,317.47,103.65Z" style="fill:#263238"/><path d="M324.51,137.12c2.44-7.4,1.93-9.67,7.31-14.82,3.53-3.38,2.88-7.08-2-5.67-8,2.29-13.14,11.17-14,14.77Z" style="fill:#d3766a"/><path d="M311.33,155.35s8.49-7.07,11.87-14.69c2.34-5.27,6.15-17.31-3.86-31.32-2.38-3.32-8.11-6.37-6.21.46,1.36,4.86,3.68,7.53,4,10.49,0,0-7.76-3-11-.5a75.42,75.42,0,0,0-8,7.15,15.51,15.51,0,0,0,1.21,1.62s-3,2.44-3.46,8.26Z" style="fill:#d3766a"/><path d="M324.63,135.27c-.89-2.89-2.89-9-6.26-13.39-3.74-4.9-12.26-13.33-15.85-10.53-2.63,2.05.34,5.55.34,5.55s-4.26-2.74-6.23-.37c-1.8,2.17.66,4.74.66,4.74s-2.87-1.22-4.2,1.2c-1.6,2.9,4.68,5,5.6,9.33C298.9,132.77,324.63,135.27,324.63,135.27Z" style="fill:#d3766a"/><path d="M313.85,126.7A24.54,24.54,0,0,0,303,116.88c-.12,0-.22,0-.12.08a61.12,61.12,0,0,1,10.94,9.77A0,0,0,1,0,313.85,126.7Z" style="fill:#263238"/><path d="M308.8,130.33c-1.34-2.11-6.14-7.17-11.44-9.15-.12,0-.21,0-.11.09a64.84,64.84,0,0,1,11.5,9.1S308.81,130.35,308.8,130.33Z" style="fill:#263238"/><path d="M295.49,132.52l10.14,33.18s-27.7,9.27-35.47,6.79-27-26.21-33.4-40.43c-3.92-8.66,1.31-14.17,10.87-6.28,9.82,8.11,23.63,19.34,24.69,19.77S295.49,132.52,295.49,132.52Z" style="fill:#ffc727"/><path d="M293.06,152.05c-.59-2.48-2.91-12.43-3.3-14.94,0,0,.06-.07.07,0,.84,2.33,3.42,12.08,4,14.57a138.9,138.9,0,0,1,3.16,15,.09.09,0,0,1-.16.05C295.26,161.89,294.24,156.94,293.06,152.05Z" style="fill:#263238"/><path d="M284.05,171.58c-5.73,1.18-11.1,1.8-13.89.91-7.78-2.48-27-26.21-33.4-40.43-3.07-6.77-.54-11.62,5.28-9.63Z" style="opacity:.1"/><path d="M260.87,165.07l.3,16.52-50.7,0S210.88,143.44,224,127c6.82-8.52,14.75-7.71,20.23-2.46,1.39,1.33,16.81,19.88,18.73,28A16.74,16.74,0,0,1,260.87,165.07Z" style="fill:#ebebeb"/><path d="M250.25,163.15a45.65,45.65,0,0,0-6.42,1.5c-1,.35-2.05.74-3.06,1.15l-1.53.58a6.78,6.78,0,0,1-1.65.42c-.05,0-.05.08,0,.08a10.82,10.82,0,0,0,1.61-.14,11.29,11.29,0,0,0,1.52-.39c1.06-.34,2.1-.72,3.15-1.07,2.13-.7,4.25-1.41,6.42-1.95C250.39,163.3,250.36,163.13,250.25,163.15Z" style="fill:#263238"/><path d="M255.79,164.72a47,47,0,0,0-5.44.11c-.91.07-1.8.19-2.7.34l-1.28.23c-.47.1-.92.25-1.39.34,0,0,0,.08,0,.07.45-.06.91-.06,1.36-.1l1.35-.13,2.7-.24c1.81-.19,3.6-.35,5.41-.47A.08.08,0,0,0,255.79,164.72Z" style="fill:#263238"/><path d="M243,123.37s11.12,25.69,11.79,29.79,5.43,66.4,5.43,66.4,10.31-4.44,10.42-4.88-9.62-48.79-9.48-49.25S265.8,160,263.29,153C257.84,137.88,243,123.37,243,123.37Z" style="fill:#ffc727"/><path d="M256.36,170.42l1.69-23.11-6-6,3.13-.62s-11.08-16-12.19-17.28c.26.7,8.36,19.37,9.92,24.61C254.25,152.4,256.47,169.46,256.36,170.42Z" style="fill:#ffc727"/><path d="M256.36,170.42l1.69-23.11-6-6,3.13-.62s-11.08-16-12.19-17.28c.26.7,8.36,19.37,9.92,24.61C254.25,152.4,256.47,169.46,256.36,170.42Z" style="opacity:.2"/><path d="M230,121.93s6.13,32.12,6.55,35.07.91,64.51.91,64.51l-39.82-6.83,11.14-33.74c.25-.75,4.17-37.34,12.1-50.21C225.71,122.83,230,121.93,230,121.93Z" style="fill:#ffc727"/><path d="M234.11,177.56a1.31,1.31,0,0,1-1.11,1.3,1.39,1.39,0,0,1-1-.29,1.33,1.33,0,0,1,0-2,1.34,1.34,0,0,1,1-.28A1.31,1.31,0,0,1,234.11,177.56Zm0,0a1,1,0,0,0-.36-.75,1,1,0,0,0-.75-.18,1,1,0,0,0-.74.93.93.93,0,0,0,1.49.75A1,1,0,0,0,234.11,177.56Z" style="fill:#263238"/><path d="M234.11,189.54a1.31,1.31,0,0,1-1.11,1.3,1.34,1.34,0,0,1-1-.28,1.39,1.39,0,0,1-.47-1,1.33,1.33,0,0,1,.47-1,1.3,1.3,0,0,1,2.13,1Zm0,0a1,1,0,0,0-.36-.75,1,1,0,0,0-.75-.17.93.93,0,0,0-.74.92,1,1,0,0,0,.74.93,1,1,0,0,0,.75-.18A1,1,0,0,0,234.11,189.54Z" style="fill:#263238"/><path d="M234.11,201.53a1.29,1.29,0,0,1-1.11,1.29,1.34,1.34,0,0,1-1-.28,1.33,1.33,0,0,1,0-2,1.34,1.34,0,0,1,1-.28A1.31,1.31,0,0,1,234.11,201.53Zm0,0a1,1,0,0,0-.36-.75,1,1,0,0,0-.75-.18,1,1,0,0,0-.74.93.93.93,0,0,0,1.49.75A1,1,0,0,0,234.11,201.53Z" style="fill:#263238"/><path d="M234.11,213.51a1.31,1.31,0,0,1-1.11,1.3,1.35,1.35,0,0,1-1-.29,1.36,1.36,0,0,1-.47-1,1.33,1.33,0,0,1,.47-1,1.3,1.3,0,0,1,2.13,1Zm0,0a1,1,0,0,0-.36-.75,1,1,0,0,0-.75-.17.93.93,0,0,0-.74.92,1,1,0,0,0,.74.93,1,1,0,0,0,.75-.18A1,1,0,0,0,234.11,213.51Z" style="fill:#263238"/><path d="M221.18,126.06c-15.63,5.79-48.92,18.94-47.8,28.32,1.85,15.41,16.63,37.8,21.77,44.06,2.21,2.71,25.77-10.77,24.27-14.19-1.8-4.11-16.59-25.59-16-26.63s12.34-11.63,20.93-21.69C235,123.45,227.7,123.65,221.18,126.06Z" style="fill:#d3766a"/><path d="M209.2,175.26s10.26,2.78,16.89,4.91c3.7,1.2,9.86,3.8,12.18,5.92,3.46,3.17,15.93,18.63,12.25,21.73-3.34,2.81-12.36-11.83-12.36-11.83s10.41,14,5.78,16.62-12.64-15.26-12.64-15.26,10.38,14.6,5.17,16.57c-3.94,1.49-12.1-14.32-12.1-14.32s8.83,12.61,4.85,14.32c-4.41,1.88-12.85-12.24-12.85-12.24-10.87,2.64-17.25,0-21.29-3.35C194.14,197.56,209.2,175.26,209.2,175.26Z" style="fill:#d3766a"/><path d="M235.34,191.6c8.45,9.71,9.63,17.06,9.56,16.87-1.67-4.46-5.65-10.63-6.79-12.34s-1.71-2.78-2.84-4.49C235.24,191.6,235.3,191.57,235.34,191.6Z" style="fill:#263238"/><path d="M228.63,194.92a43.9,43.9,0,0,1,8.56,12.94c.07.19,0,.17-.14,0-1.38-2.21-7-10.78-8.47-12.91C228.56,194.92,228.6,194.89,228.63,194.92Z" style="fill:#263238"/><path d="M222.67,197.38A32.64,32.64,0,0,1,229,207.6c.07.18-.08.15-.18,0-2-3.44-3.61-6.15-6.26-10.11C222.52,197.41,222.61,197.32,222.67,197.38Z" style="fill:#263238"/><path d="M215.33,177l-27.62,16.52s-17.19-32.77-14.61-41,41.18-26.54,50.94-28.7c7-1.53,7.41,4.3,2.65,10.59-5.11,6.73-22.8,23.1-22.94,23.59S215.33,177,215.33,177Z" style="fill:#ffc727"/><path d="M212.71,149c1.47-1.38,2.94-2.78,4.39-4.19.75-.73,1.5-1.46,2.27-2.18l1.06-1c.17-.17.37-.32.53-.49.6-.64.07-.08.72-.65,0,0,.11,0,.07.07-.35.42-.13.3-.45.59a8.5,8.5,0,0,0-.66.68c-.32.36-.66.71-1,1.06-.67.73-1.36,1.44-2.06,2.14l-.28.28.09-.07c.89-.68,1.79-1.34,2.68-2a0,0,0,1,1,0,.06c-.82.76-1.65,1.49-2.54,2.17-.51.4-1.05.76-1.58,1.12-.94.94-1.88,1.88-2.83,2.8-3,2.85-5.93,5.71-9.1,8.32,1,1.6,2,3.15,3,4.76s1.93,3.22,2.88,4.84,1.92,3.24,2.85,4.87c.44.78.87,1.57,1.31,2.36s.85,1.76,1.34,2.6c.05.09-.09.15-.14.06-.52-.86-1.16-1.65-1.7-2.5s-1-1.49-1.43-2.24c-1-1.6-2-3.21-2.93-4.83s-1.93-3.22-2.88-4.85-1.81-3.29-2.76-4.91a.18.18,0,0,1,0-.16.2.2,0,0,1,0-.24C206.62,154.6,209.71,151.85,212.71,149Z" style="fill:#263238"/><path d="M197.64,178.89c2-1.19,10.16-5.85,12.26-6.86,0,0,.08,0,0,.06-1.82,1.35-9.71,6.19-11.73,7.38a127,127,0,0,1-12.33,6.74c-.08,0-.16-.07-.09-.12C189.58,183.42,193.65,181.21,197.64,178.89Z" style="fill:#263238"/><path d="M231.5,143.9l-3,6.4,8.4,22.34c-.31-.57.44-10.86-.79-19.32-1.47-10.11-6.22-31.34-6.22-31.34l-3.16,21Z" style="fill:#ffc727"/><path d="M231.5,143.9l-3,6.4,8.4,22.34c-.31-.57.44-10.86-.79-19.32-1.47-10.11-6.22-31.34-6.22-31.34l-3.16,21Z" style="opacity:.2"/><path d="M231.37,123.53c.43,1,6.49,6.67,11.09,5.59,1.5-.35-.06-8.61-.06-8.61l0-.64.33-8.9-11.23-4.6-1.61-.58s.07,2.44.19,5.48c0,.14,0,.28,0,.43s0,.34,0,.5c0,.45,0,.92.05,1.38s0,.69.06,1.06,0,.73.07,1.1A59,59,0,0,0,231.37,123.53Z" style="fill:#d3766a"/><path d="M230.11,111.27a17.83,17.83,0,0,0,12.32,8.6l.33-8.9-11.23-4.6-1.61-.58S230,108.23,230.11,111.27Z" style="fill:#263238"/><path d="M252.94,96.12c3.25,15.29-5.54,19-8.84,19.67-3,.63-13.27,2.41-18.09-12.47s1.27-21.23,8-23S249.69,80.82,252.94,96.12Z" style="fill:#d3766a"/><path d="M248.16,93.35a9.73,9.73,0,0,1-1.08,0,1.74,1.74,0,0,1-1.1-.23.56.56,0,0,1-.13-.67,1.39,1.39,0,0,1,1.28-.57,2,2,0,0,1,1.39.46A.6.6,0,0,1,248.16,93.35Z" style="fill:#263238"/><path d="M237.72,95.77a9.63,9.63,0,0,0,1-.42,1.71,1.71,0,0,0,.93-.62.55.55,0,0,0-.13-.67,1.37,1.37,0,0,0-1.4-.06A2,2,0,0,0,237,95,.59.59,0,0,0,237.72,95.77Z" style="fill:#263238"/><path d="M240.88,99.08s-.07.06-.06.11c.26,1,.39,2.26-.48,2.81,0,0,0,.07,0,.06C241.48,101.65,241.3,100,240.88,99.08Z" style="fill:#263238"/><path d="M239.72,98.19c-1.71.24-1.11,3.63.47,3.41S241.15,98,239.72,98.19Z" style="fill:#263238"/><path d="M239.08,98.49c-.26.24-.49.63-.84.73s-.78-.19-1.11-.48c0,0-.06,0,0,.05.1.65.47,1.27,1.18,1.25s1-.68,1.06-1.36C239.32,98.55,239.19,98.39,239.08,98.49Z" style="fill:#263238"/><path d="M246.79,97.36s.09,0,.1.08c.14,1.06.48,2.25,1.49,2.43,0,0,0,.06,0,.06C247.2,100,246.76,98.39,246.79,97.36Z" style="fill:#263238"/><path d="M247.54,96.1c1.68-.41,2.38,3,.83,3.34S246.14,96.45,247.54,96.1Z" style="fill:#263238"/><path d="M248.29,96.18c.31.12.64.39,1,.34s.57-.47.73-.87c0,0,.05,0,.06,0,.16.64.08,1.35-.51,1.61s-1.07-.24-1.36-.85C248.12,96.33,248.17,96.13,248.29,96.18Z" style="fill:#263238"/><path d="M242.91,107.39c.28.22.58.53,1,.51a2.94,2.94,0,0,0,1.1-.41,0,0,0,0,1,.06,0,1.42,1.42,0,0,1-1.27.75,1.15,1.15,0,0,1-1-.82C242.79,107.4,242.87,107.36,242.91,107.39Z" style="fill:#263238"/><path d="M246.64,104.92a4.32,4.32,0,0,1-1.35,1.74,1.93,1.93,0,0,1-1.14.36c-.89,0-1.1-.77-1.11-1.46a4.55,4.55,0,0,1,.11-1.1A5.67,5.67,0,0,0,246.64,104.92Z" style="fill:#263238"/><path d="M245.29,106.66a1.93,1.93,0,0,1-1.14.36c-.89,0-1.1-.77-1.11-1.46A2,2,0,0,1,245.29,106.66Z" style="fill:#ff9cbd"/><path d="M246.58,102.78s.51,1.52.65,2.26c0,.07-.16.14-.41.2,0,0,0,0,0,0a3.59,3.59,0,0,1-3.66-.66.08.08,0,0,1,.09-.13,5.35,5.35,0,0,0,3.39.32c0-.22-1-2.59-.85-2.62a6.6,6.6,0,0,1,1.75.07c-1-3.21-2.46-6.24-3.38-9.45,0-.11.13-.18.18-.08a53.85,53.85,0,0,1,4.07,10C248.52,103.11,246.9,102.85,246.58,102.78Z" style="fill:#263238"/><path d="M226.72,102c3.55-.5,2.69-6.08,2.69-6.08s4-1,3.29-7.49A10,10,0,0,0,240.78,92c1.18,0-3.13-2.41-3.13-2.41s5.26,3.5,13.61.62c.59-.2-2-9.07-9.25-11.16s-13,.57-16.56,5.45c0,0-4.61,3-4.46,7.77S225.34,102.14,226.72,102Z" style="fill:#263238"/><path d="M228.69,103s-4-4.43-6-3,1.37,8.19,4.07,8.83a2.64,2.64,0,0,0,3.34-1.85Z" style="fill:#d3766a"/><path d="M223.68,101.93s0,.06,0,.07c1.91.51,3.07,2.07,4,3.73a1.46,1.46,0,0,0-2.22-.13.06.06,0,0,0,.06.09,1.64,1.64,0,0,1,1.85.34,8.91,8.91,0,0,1,1,1.33c.1.16.38,0,.3-.15l0,0C228.38,104.86,226.19,101.85,223.68,101.93Z" style="fill:#263238"/><path d="M230.23,121.8a12.19,12.19,0,0,1,5.82-1.18c2.24.06,6.8,2.77,6.8,2.77s5.65,20.66,2.33,20.84C241.06,144.46,229.75,122.65,230.23,121.8Z" style="fill:#d3766a"/></g></svg>